<svg width="1024" height="1024" viewBox="0 0 1024 1024" fill="none" xmlns="http://www.w3.org/2000/svg">
<rect width="1024" height="1024" fill="black"/>
<g transform="translate(250, 250) scale(7.5)">
<g clip-path="url(#clip0_8_1661)">
<path d="M70.02 76.36C69.57 76.74 68.83 77.14 68.26 77.01C67.55 76.85 63.22 73.08 61.43 72.26C48.72 66.47 37.35 75.83 28.15 83.52C27.28 83.52 20.3 76.62 20.3 75.67C20.3 73.29 31.51 67.13 33.95 66.1C43.52 62.07 53.11 61.62 63.23 63.78C60.67 51.99 61.87 39.93 67.98 29.39C68.9 27.81 73.65 20.85 75.12 20.85C76.07 20.85 82.97 27.83 82.97 28.7C80.51 32.17 77.19 35.02 74.93 38.66C68.22 49.46 67.78 59.44 76.53 69.22C74.26 70.98 71.97 74.68 70.02 76.36Z" fill="white"/>
<path d="M19.74 20.29C22.1 32.11 21.12 43.22 15.3 53.84C14.47 55.36 9.47 62.86 8.33 63.16C6.79 63.57 0.94 57.01 0 55.38C8.58 45.46 17.99 33.56 10.24 20.22C9.56 19.06 6.56 15.62 6.46 15.25C5.97 13.4 8.39 12.77 9.24 11.83C10.26 10.69 12.82 6.94001 14.23 6.94001C21.07 12.28 26.9 15.2 35.66 12.73C43.02 10.65 49.63 5.42001 54.83 0.0100098C55.99 1.76001 62.2 6.49001 62.59 7.93001C62.83 8.83001 62.59 8.96001 62.06 9.55001C61.13 10.6 57.21 13.51 55.87 14.38C45.08 21.36 32.18 22.85 19.74 20.29Z" fill="white"/>
</g>
<defs>
<clipPath id="clip0_8_1661">
<rect width="82.97" height="83.52" fill="white"/>
</clipPath>
</defs>
</g>
</svg>
